<svg width="784" height="121" viewBox="0 0 784 121" fill="none" xmlns="http://www.w3.org/2000/svg">
<path d="M38.32 40.92H43.36V35.88H48.4V15.72H43.36V10.68H38.32V5.64H33.28V0.599997H3.04V51H33.28V45.96H13.12V5.64H33.28V10.68H38.32V40.92H33.28V45.96H38.32V40.92ZM53.4541 40.92H48.4141V45.96H53.4541V51H63.5341V45.96H53.4541V40.92H58.4941V35.88H68.5741V40.92H73.6141V15.72H58.4941V20.76H53.4541V30.84H58.4941V35.88H53.4541V40.92ZM68.5741 20.76V30.84H58.4941V20.76H68.5741ZM68.5741 51H78.6541V45.96H68.5741V51ZM93.7909 20.76H108.911V15.72H93.7909V10.68H88.7509V51H103.871V45.96H93.7909V20.76ZM113.923 40.92H108.883V45.96H113.923V51H124.003V45.96H113.923V40.92H118.963V35.88H129.043V40.92H134.083V15.72H118.963V20.76H113.923V30.84H118.963V35.88H113.923V40.92ZM129.043 20.76V30.84H118.963V20.76H129.043ZM129.043 51H139.123V45.96H129.043V51ZM187.38 47.4H190.98V40.2H187.38V29.4H183.78V22.2H180.18V15H176.58V4.2H180.18V0.599997H162.18V4.2H165.78V7.8H169.38V15H172.98V25.8H176.58V33H180.18V40.2H183.78V51H187.38V47.4ZM201.78 22.2V15H205.38V7.8H208.98V4.2H212.58V0.599997H198.18V4.2H201.78V15H198.18V22.2H201.78ZM194.58 33H198.18V25.8H194.58V33H190.98V40.2H194.58V33ZM216.208 7.8H223.408V0.599997H216.208V7.8ZM230.608 47.4H223.408V18.6H212.608V22.2H216.208V47.4H212.608V51H230.608V47.4ZM255.794 47.4H259.394V36.6H255.794V33H244.994V29.4H237.794V22.2H241.394V18.6H248.594V22.2H252.194V29.4H255.794V18.6H248.594V15H241.394V18.6H234.194V33H241.394V36.6H248.594V40.2H252.194V47.4H237.794V40.2H234.194V51H255.794V47.4ZM284.622 47.4H288.222V51H299.022V47.4H295.422V18.6H284.622V22.2H288.222V43.8H284.622V47.4H273.822V18.6H263.022V22.2H266.622V47.4H270.222V51H284.622V47.4ZM324.194 43.8H320.594V47.4H313.394V36.6H316.994V33H309.794V36.6H306.194V51H324.194V47.4H327.794V51H334.994V47.4H331.394V18.6H324.194V15H313.394V18.6H309.794V22.2H306.194V25.8H309.794V29.4H313.394V18.6H320.594V22.2H324.194V29.4H320.594V33H324.194V43.8ZM360.194 47.4H352.994V0.599997H342.194V4.2H345.794V47.4H338.594V51H360.194V47.4ZM367.38 7.8H374.58V0.599997H367.38V7.8ZM381.78 47.4H374.58V18.6H363.78V22.2H367.38V47.4H363.78V51H381.78V47.4ZM388.966 22.2H396.166V18.6H385.366V25.8H388.966V22.2ZM399.766 22.2V29.4H396.166V33H392.566V40.2H388.966V43.8H385.366V51H410.566V43.8H414.166V36.6H410.566V43.8H406.966V47.4H392.566V43.8H396.166V40.2H399.766V33H403.366V29.4H406.966V22.2H410.566V18.6H406.966V22.2H399.766ZM435.78 43.8H432.18V47.4H424.98V36.6H428.58V33H421.38V36.6H417.78V51H435.78V47.4H439.38V51H446.58V47.4H442.98V18.6H435.78V15H424.98V18.6H421.38V22.2H417.78V25.8H421.38V29.4H424.98V18.6H432.18V22.2H435.78V29.4H432.18V33H435.78V43.8ZM464.58 22.2H460.98V18.6H464.58V7.8H460.98V11.4H457.38V15H453.78V18.6H457.38V51H471.78V47.4H464.58V22.2ZM471.78 18.6H464.58V22.2H471.78V18.6ZM482.552 7.8H489.752V0.599997H482.552V7.8ZM496.952 47.4H489.752V18.6H478.952V22.2H482.552V47.4H478.952V51H496.952V47.4ZM525.738 47.4H529.338V40.2H532.938V25.8H529.338V22.2H525.738V18.6H518.538V15H511.338V18.6H504.138V22.2H500.538V33H496.938V36.6H500.538V47.4H507.738V51H525.738V47.4ZM507.738 47.4V40.2H504.138V25.8H507.738V22.2H511.338V18.6H518.538V22.2H522.138V33H525.738V40.2H522.138V47.4H507.738ZM561.738 47.4H558.138V51H576.138V47.4H568.938V18.6H561.738V15H554.538V18.6H550.938V22.2H561.738V47.4ZM543.738 25.8V22.2H547.338V18.6H536.538V22.2H540.138V47.4H536.538V51H550.938V47.4H547.338V25.8H543.738ZM547.338 22.2V25.8H550.938V22.2H547.338ZM28.24 111.44V113.96H23.2V116.48H28.24V113.96H30.76V116.48H33.28V119H45.88V116.48H50.92V113.96H38.32V111.44H35.8V103.88H38.32V98.84H40.84V93.8H43.36V91.28H48.4V88.76H33.28V91.28H38.32V96.32H35.8V103.88H33.28V106.4H30.76V103.88H28.24V98.84H25.72V96.32H23.2V93.8H20.68V91.28H18.16V88.76H23.2V86.24H15.64V78.68H13.12V73.64H15.64V71.12H23.2V73.64H25.72V81.2H23.2V86.24H25.72V83.72H28.24V81.2H30.76V71.12H28.24V68.6H13.12V71.12H10.6V73.64H8.08V86.24H10.6V93.8H5.56V96.32H3.04V98.84H0.52V113.96H3.04V116.48H5.56V119H23.2V116.48H13.12V113.96H10.6V111.44H8.08V106.4H5.56V101.36H8.08V96.32H10.6V93.8H15.64V98.84H18.16V101.36H20.68V106.4H23.2V108.92H25.72V111.44H28.24ZM91.9853 117.56H90.5453V116.12H86.2253V114.68H84.7853V72.92H86.2253V71.48H91.9853V68.6H70.3853V70.04H71.8253V71.48H76.1453V72.92H77.5853V114.68H76.1453V116.12H70.3853V119H91.9853V117.56ZM112.134 117.56H110.694V116.12H107.814V93.08H109.254V91.64H110.694V90.2H112.134V88.76H119.334V90.2H120.774V93.08H122.214V114.68H120.774V116.12H117.894V117.56H116.454V119H133.734V117.56H132.294V116.12H129.414V90.2H127.974V88.76H126.534V87.32H125.094V85.88H123.654V84.44H115.014V85.88H112.134V87.32H110.694V88.76H109.254V90.2H107.814V91.64H106.374V93.08H104.934V91.64H106.374V90.2H107.814V84.44H104.934V85.88H99.1741V87.32H96.2941V88.76H99.1741V90.2H100.614V114.68H99.1741V116.12H97.7341V117.56H94.8541V119H112.134V117.56ZM153.9 117.56H151.02V116.12H149.58V114.68H148.14V88.76H145.26V87.32H156.78V84.44H148.14V74.36H149.58V71.48H151.02V70.04H159.66V71.48H158.22V75.8H159.66V77.24H163.98V74.36H165.42V72.92H163.98V70.04H162.54V68.6H159.66V67.16H151.02V68.6H148.14V70.04H146.7V71.48H145.26V72.92H143.82V75.8H142.38V81.56H140.94V84.44H136.62V87.32H140.94V116.12H138.06V117.56H135.18V119H153.9V117.56ZM176.996 119H182.756V117.56H184.196V116.12H185.636V114.68H187.076V113.24H188.516V111.8H189.956V107.48H191.396V95.96H189.956V93.08H188.516V90.2H187.076V88.76H185.636V87.32H184.196V85.88H179.876V84.44H169.796V85.88H166.916V87.32H165.476V88.76H164.036V90.2H162.596V91.64H161.156V94.52H159.716V108.92H161.156V111.8H162.596V114.68H164.036V116.12H166.916V117.56H168.356V119H174.116V120.44H176.996V119ZM171.236 116.12V114.68H169.796V111.8H168.356V107.48H166.916V94.52H168.356V90.2H169.796V88.76H172.676V87.32H178.436V88.76H179.876V90.2H181.316V91.64H182.756V94.52H184.196V111.8H182.756V113.24H181.316V114.68H179.876V116.12H171.236ZM210.082 94.52V91.64H211.522V90.2H212.962V88.76H215.842V87.32H218.722V88.76H217.282V91.64H218.722V93.08H224.482V85.88H223.042V84.44H215.842V85.88H214.402V87.32H211.522V90.2H210.082V91.64H208.642V94.52H210.082ZM214.402 117.56H211.522V116.12H210.082V114.68H208.642V94.52H207.202V91.64H208.642V84.44H205.762V85.88H200.002V87.32H197.122V88.76H200.002V90.2H201.442V116.12H198.562V117.56H195.682V119H214.402V117.56ZM227.393 119H246.113V117.56H243.233V116.12H241.793V114.68H240.353V93.08H241.793V91.64H243.233V90.2H246.113V88.76H251.873V90.2H253.313V93.08H254.753V116.12H251.873V117.56H248.993V119H266.273V117.56H264.833V116.12H263.393V114.68H261.953V93.08H263.393V91.64H264.833V90.2H266.273V88.76H272.033V90.2H273.473V91.64H274.913V116.12H272.033V117.56H270.593V119H287.873V117.56H284.993V116.12H283.553V114.68H282.113V90.2H280.673V87.32H279.233V85.88H276.353V84.44H267.713V85.88H264.833V87.32H263.393V88.76H261.953V90.2H260.513V93.08H259.073V90.2H260.513V88.76H259.073V87.32H257.633V85.88H256.193V84.44H247.553V85.88H244.673V87.32H243.233V88.76H241.793V90.2H240.353V91.64H238.913V93.08H237.473V91.64H238.913V90.2H240.353V84.44H237.473V85.88H231.713V87.32H228.833V88.76H231.713V90.2H233.153V116.12H230.273V117.56H227.393V119ZM306.585 117.56H309.465V116.12H310.905V114.68H312.345V117.56H313.785V119H320.985V117.56H323.865V116.12H325.305V114.68H322.425V116.12H319.545V90.2H318.105V88.76H316.665V87.32H315.225V85.88H310.905V84.44H300.825V85.88H297.945V87.32H295.065V90.2H293.625V95.96H299.385V93.08H300.825V91.64H297.945V90.2H299.385V88.76H300.825V87.32H309.465V88.76H310.905V91.64H312.345V98.84H306.585V100.28H302.265V101.72H299.385V103.16H296.505V104.6H293.625V106.04H292.185V116.12H293.625V117.56H295.065V119H306.585V117.56ZM300.825 116.12V113.24H299.385V106.04H300.825V104.6H302.265V103.16H306.585V101.72H310.905V100.28H312.345V111.8H310.905V113.24H308.025V114.68H306.585V116.12H300.825ZM338.265 88.76H335.385V87.32H346.905V84.44H338.265V74.36H336.825V77.24H335.385V78.68H333.945V80.12H332.505V81.56H331.065V83H329.625V84.44H328.185V85.88H326.745V87.32H331.065V116.12H332.505V117.56H333.945V119H342.585V117.56H344.025V116.12H345.465V114.68H346.905V111.8H345.465V113.24H344.025V114.68H338.265V88.76ZM355.567 77.24H362.767V70.04H355.567V77.24ZM368.527 117.56H365.647V116.12H364.207V114.68H362.767V84.44H359.887V85.88H354.127V87.32H351.247V88.76H354.127V90.2H355.567V116.12H352.687V117.56H349.807V119H368.527V117.56ZM390.113 119H395.873V117.56H397.313V116.12H398.753V114.68H400.193V113.24H401.633V111.8H403.073V107.48H404.513V95.96H403.073V93.08H401.633V90.2H400.193V88.76H398.753V87.32H397.313V85.88H392.993V84.44H382.913V85.88H380.033V87.32H378.593V88.76H377.153V90.2H375.713V91.64H374.273V94.52H372.833V108.92H374.273V111.8H375.713V114.68H377.153V116.12H380.033V117.56H381.473V119H387.233V120.44H390.113V119ZM384.353 116.12V114.68H382.913V111.8H381.473V107.48H380.033V94.52H381.473V90.2H382.913V88.76H385.793V87.32H391.553V88.76H392.993V90.2H394.433V91.64H395.873V94.52H397.313V111.8H395.873V113.24H394.433V114.68H392.993V116.12H384.353ZM426.079 117.56H424.639V116.12H421.759V93.08H423.199V91.64H424.639V90.2H426.079V88.76H433.279V90.2H434.719V93.08H436.159V114.68H434.719V116.12H431.839V117.56H430.399V119H447.679V117.56H446.239V116.12H443.359V90.2H441.919V88.76H440.479V87.32H439.039V85.88H437.599V84.44H428.959V85.88H426.079V87.32H424.639V88.76H423.199V90.2H421.759V91.64H420.319V93.08H418.879V91.64H420.319V90.2H421.759V84.44H418.879V85.88H413.119V87.32H410.239V88.76H413.119V90.2H414.559V114.68H413.119V116.12H411.679V117.56H408.799V119H426.079V117.56ZM500.965 103.16V103.88H501.685V106.04H502.405V107.48H503.125V109.64H503.845V111.08H504.565V113.24H505.285V114.68H504.565V116.12H503.125V116.84H500.245V119H518.965V116.84H516.805V116.12H515.365V115.4H514.645V114.68H513.925V113.24H513.205V112.52H512.485V110.36H511.765V108.92H511.045V106.76H510.325V105.32H509.605V103.88H508.885V101.72H508.165V100.28H507.445V98.84H506.725V97.4H506.005V95.24H505.285V93.8H504.565V91.64H503.845V90.2H503.125V88.76H502.405V86.6H501.685V85.16H500.965V83.72H500.245V81.56H499.525V80.12H498.805V78.68H498.085V76.52H497.365V75.08H496.645V73.64H495.925V71.48H495.205V70.04H494.485V68.6H493.765V67.16H492.325V68.6H491.605V70.76H490.885V72.2H490.165V73.64H489.445V75.8H488.725V77.24H488.005V78.68H487.285V80.84H486.565V82.28H485.845V83.72H485.125V85.88H484.405V87.32H483.685V88.76H482.965V90.92H482.245V92.36H481.525V93.8H480.805V95.96H480.085V97.4H479.365V98.84H478.645V100.28H477.925V102.44H477.205V103.88H476.485V106.04H475.765V107.48H475.045V108.92H474.325V111.08H473.605V112.52H472.885V113.24H472.165V114.68H471.445V115.4H470.005V116.12H469.285V116.84H467.845V119H482.245V116.84H479.365V116.12H477.925V114.68H477.205V111.08H477.925V108.92H478.645V107.48H479.365V105.32H480.085V103.88H480.805V102.44H481.525V101.72H503.125V102.44H503.845V103.16H500.965ZM482.245 99.56V98.84H482.965V97.4H483.685V95.24H484.405V93.8H485.125V91.64H485.845V90.2H486.565V88.76H487.285V86.6H488.005V85.16H488.725V83H489.445V81.56H490.165V80.12H491.605V81.56H492.325V83H493.045V85.16H493.765V86.6H494.485V88.76H495.205V90.2H495.925V91.64H496.645V93.8H497.365V95.24H498.085V96.68H498.805V98.84H499.525V99.56H482.245ZM549.219 99.56V97.4H548.499V93.8H547.779V91.64H547.059V90.92H546.339V89.48H545.619V88.76H544.899V88.04H544.179V87.32H543.459V86.6H542.019V85.88H540.579V85.16H538.419V84.44H531.939V85.16H529.779V85.88H528.339V86.6H527.619V87.32H526.179V88.04H525.459V88.76H524.739V89.48H524.019V90.2H523.299V91.64H522.579V92.36H521.859V93.8H521.139V95.96H520.419V98.12H519.699V107.48H520.419V109.64H521.139V111.08H521.859V112.52H522.579V113.96H523.299V114.68H524.019V115.4H524.739V116.12H525.459V116.84H526.899V117.56H528.339V118.28H529.779V119H532.659V119.72H539.139V119H541.299V118.28H542.739V117.56H543.459V116.84H544.179V116.12H544.899V115.4H545.619V114.68H546.339V113.96H547.059V112.52H547.779V110.36H548.499V108.92H547.779V110.36H547.059V111.08H546.339V111.8H545.619V112.52H544.899V113.24H544.179V113.96H542.739V114.68H539.859V115.4H535.539V114.68H533.379V113.96H531.939V113.24H531.219V112.52H530.499V111.8H529.779V111.08H529.059V109.64H528.339V108.2H527.619V106.04H526.899V101H524.019V99.56H549.219ZM526.899 97.4V95.24H527.619V92.36H528.339V90.92H529.059V90.2H529.779V88.76H531.219V88.04H532.659V87.32H536.979V88.04H538.419V88.76H539.139V89.48H539.859V90.2H540.579V91.64H541.299V94.52H542.019V97.4H526.899ZM554.959 119H556.399V118.28H558.559V117.56H557.839V116.84H557.119V116.12H556.399V113.96H557.119V114.68H557.839V115.4H558.559V116.12H559.279V116.84H559.999V117.56H561.439V118.28H562.879V119H565.039V119.72H570.079V119H572.239V118.28H573.679V117.56H575.119V116.84H575.839V116.12H576.559V114.68H577.279V113.96H577.999V111.8H578.719V106.76H577.999V104.6H577.279V103.88H576.559V103.16H575.839V102.44H575.119V101.72H573.679V101H572.239V100.28H570.079V99.56H568.639V98.84H566.479V98.12H565.039V97.4H562.879V96.68H562.159V95.96H560.719V94.52H559.999V93.08H559.279V90.92H559.999V89.48H560.719V88.76H561.439V88.04H563.599V87.32H566.479V88.04H568.639V88.76H569.359V89.48H570.079V90.2H570.799V90.92H571.519V91.64H572.239V92.36H572.959V93.8H573.679V95.96H574.399V96.68H577.279V84.44H575.119V85.16H573.679V85.88H572.959V86.6H573.679V87.32H574.399V89.48H573.679V88.76H572.959V88.04H572.239V87.32H571.519V86.6H570.079V85.88H568.639V85.16H566.479V84.44H562.159V85.16H559.279V85.88H558.559V86.6H557.119V87.32H556.399V88.76H555.679V89.48H554.959V90.92H554.239V97.4H554.959V98.84H555.679V100.28H556.399V101H557.839V101.72H558.559V102.44H559.999V103.16H561.439V103.88H563.599V104.6H565.039V105.32H567.199V106.04H569.359V106.76H570.799V107.48H571.519V108.2H572.239V108.92H572.959V110.36H573.679V112.52H572.959V113.96H572.239V114.68H571.519V115.4H570.799V116.12H562.879V115.4H562.159V114.68H560.719V113.96H559.999V113.24H559.279V112.52H558.559V111.08H557.839V109.64H557.119V108.2H556.399V106.76H553.519V119.72H554.959V119ZM593.131 89.48H590.971V88.04H603.211V85.16H593.131V73.64H592.411V75.08H591.691V76.52H590.971V77.96H590.251V78.68H589.531V79.4H588.811V80.84H588.091V81.56H587.371V82.28H586.651V83H585.931V83.72H585.211V84.44H584.491V85.16H583.771V85.88H583.051V86.6H582.331V87.32H581.611V88.04H586.651V113.96H587.371V116.12H588.091V117.56H588.811V118.28H590.251V119H591.691V119.72H596.011V119H598.171V118.28H598.891V117.56H600.331V116.12H601.051V115.4H601.771V113.96H602.491V112.52H601.771V113.24H601.051V113.96H599.611V114.68H594.571V113.96H593.851V112.52H593.131V89.48ZM603.211 111.8V111.08H602.491V111.8H603.211ZM615.473 93.8V90.92H616.193V90.2H616.913V89.48H617.633V67.16H614.753V67.88H611.873V68.6H608.273V69.32H605.393V70.04H606.833V70.76H608.273V71.48H609.713V72.2H610.433V72.92H611.153V114.68H610.433V115.4H609.713V116.12H608.993V116.84H605.393V119H622.673V116.84H619.793V116.12H619.073V115.4H618.353V114.68H617.633V93.08H618.353V92.36H619.073V91.64H619.793V90.92H620.513V90.2H621.953V89.48H624.113V88.76H627.713V89.48H629.873V90.2H630.593V90.92H631.313V92.36H632.033V115.4H631.313V116.12H630.593V116.84H626.993V119H644.273V116.84H641.393V116.12H639.953V115.4H639.233V113.96H638.513V91.64H637.793V89.48H637.073V88.04H636.353V87.32H635.633V86.6H634.913V85.88H634.193V85.16H632.033V84.44H626.273V85.16H624.113V85.88H622.673V86.6H621.953V87.32H620.513V88.04H619.793V88.76H619.073V89.48H618.353V90.92H617.633V91.64H616.913V92.36H616.193V93.8H615.473ZM677.399 99.56V97.4H676.679V93.8H675.959V91.64H675.239V90.92H674.519V89.48H673.799V88.76H673.079V88.04H672.359V87.32H671.639V86.6H670.199V85.88H668.759V85.16H666.599V84.44H660.119V85.16H657.959V85.88H656.519V86.6H655.799V87.32H654.359V88.04H653.639V88.76H652.919V89.48H652.199V90.2H651.479V91.64H650.759V92.36H650.039V93.8H649.319V95.96H648.599V98.12H647.879V107.48H648.599V109.64H649.319V111.08H650.039V112.52H650.759V113.96H651.479V114.68H652.199V115.4H652.919V116.12H653.639V116.84H655.079V117.56H656.519V118.28H657.959V119H660.839V119.72H667.319V119H669.479V118.28H670.919V117.56H671.639V116.84H672.359V116.12H673.079V115.4H673.799V114.68H674.519V113.96H675.239V112.52H675.959V110.36H676.679V108.92H675.959V110.36H675.239V111.08H674.519V111.8H673.799V112.52H673.079V113.24H672.359V113.96H670.919V114.68H668.039V115.4H663.719V114.68H661.559V113.96H660.119V113.24H659.399V112.52H658.679V111.8H657.959V111.08H657.239V109.64H656.519V108.2H655.799V106.04H655.079V101H652.199V99.56H677.399ZM655.079 97.4V95.24H655.799V92.36H656.519V90.92H657.239V90.2H657.959V88.76H659.399V88.04H660.839V87.32H665.159V88.04H666.599V88.76H667.319V89.48H668.039V90.2H668.759V91.64H669.479V94.52H670.199V97.4H655.079ZM691.779 89.48H689.619V88.04H701.859V85.16H691.779V73.64H691.059V75.08H690.339V76.52H689.619V77.96H688.899V78.68H688.179V79.4H687.459V80.84H686.739V81.56H686.019V82.28H685.299V83H684.579V83.72H683.859V84.44H683.139V85.16H682.419V85.88H681.699V86.6H680.979V87.32H680.259V88.04H685.299V113.96H686.019V116.12H686.739V117.56H687.459V118.28H688.899V119H690.339V119.72H694.659V119H696.819V118.28H697.539V117.56H698.979V116.12H699.699V115.4H700.419V113.96H701.139V112.52H700.419V113.24H699.699V113.96H698.259V114.68H693.219V113.96H692.499V112.52H691.779V89.48ZM701.859 111.8V111.08H701.139V111.8H701.859ZM710.505 77.24H717.705V70.04H710.505V77.24ZM704.745 87.32V88.04H706.185V88.76H707.625V89.48H709.065V90.2H709.785V90.92H710.505V114.68H709.785V115.4H709.065V116.12H708.345V116.84H704.745V119H722.745V116.84H719.145V116.12H718.425V115.4H717.705V113.96H716.985V84.44H715.545V85.16H712.665V85.88H709.785V86.6H707.625V87.32H704.745ZM745.068 119H747.228V118.28H748.668V117.56H749.388V116.84H750.108V116.12H750.828V115.4H751.548V114.68H752.268V113.24H752.988V111.8H753.708V110.36H754.428V109.64H753.708V110.36H752.988V111.08H752.268V111.8H751.548V112.52H750.828V113.24H750.108V113.96H748.668V114.68H745.788V115.4H742.188V114.68H740.028V113.96H738.588V113.24H737.868V112.52H737.148V111.8H736.428V111.08H735.708V109.64H734.988V108.2H734.268V105.32H733.548V95.24H734.268V93.08H734.988V91.64H735.708V90.2H736.428V89.48H737.148V88.76H738.588V88.04H740.028V87.32H745.068V88.04H746.508V88.76H747.948V90.2H748.668V91.64H747.228V95.24H747.948V95.96H749.388V96.68H752.268V95.96H752.988V95.24H753.708V94.52H754.428V90.92H753.708V89.48H752.988V88.04H752.268V87.32H750.828V86.6H750.108V85.88H748.668V85.16H746.508V84.44H739.308V85.16H736.428V85.88H734.988V86.6H734.268V87.32H732.828V88.04H732.108V88.76H731.388V89.48H730.668V90.2H729.948V91.64H729.228V92.36H728.508V93.8H727.788V95.96H727.068V98.12H726.348V106.76H727.068V109.64H727.788V111.08H728.508V112.52H729.228V113.24H729.948V114.68H730.668V115.4H731.388V116.12H732.108V116.84H733.548V117.56H734.988V118.28H736.428V119H738.588V119.72H745.068V119ZM759.498 119H760.938V118.28H763.098V117.56H762.378V116.84H761.658V116.12H760.938V113.96H761.658V114.68H762.378V115.4H763.098V116.12H763.818V116.84H764.538V117.56H765.978V118.28H767.418V119H769.578V119.72H774.618V119H776.778V118.28H778.218V117.56H779.658V116.84H780.378V116.12H781.098V114.68H781.818V113.96H782.538V111.8H783.258V106.76H782.538V104.6H781.818V103.88H781.098V103.16H780.378V102.44H779.658V101.72H778.218V101H776.778V100.28H774.618V99.56H773.178V98.84H771.018V98.12H769.578V97.4H767.418V96.68H766.698V95.96H765.258V94.52H764.538V93.08H763.818V90.92H764.538V89.48H765.258V88.76H765.978V88.04H768.138V87.32H771.018V88.04H773.178V88.76H773.898V89.48H774.618V90.2H775.338V90.92H776.058V91.64H776.778V92.36H777.498V93.8H778.218V95.96H778.938V96.68H781.818V84.44H779.658V85.16H778.218V85.88H777.498V86.6H778.218V87.32H778.938V89.48H778.218V88.76H777.498V88.04H776.778V87.32H776.058V86.6H774.618V85.88H773.178V85.16H771.018V84.44H766.698V85.16H763.818V85.88H763.098V86.6H761.658V87.32H760.938V88.76H760.218V89.48H759.498V90.92H758.778V97.4H759.498V98.84H760.218V100.28H760.938V101H762.378V101.72H763.098V102.44H764.538V103.16H765.978V103.88H768.138V104.6H769.578V105.32H771.738V106.04H773.898V106.76H775.338V107.48H776.058V108.2H776.778V108.92H777.498V110.36H778.218V112.52H777.498V113.96H776.778V114.68H776.058V115.4H775.338V116.12H767.418V115.4H766.698V114.68H765.258V113.96H764.538V113.24H763.818V112.52H763.098V111.08H762.378V109.64H761.658V108.2H760.938V106.76H758.058V119.72H759.498V119Z" fill="currentColor"/>
</svg>
