<svg id="Layer_1" data-name="Layer 1" xmlns="http://www.w3.org/2000/svg" viewBox="0 0 643.11 103.85"><rect x="5.41" y="21.19" width="633.52" height="3.63" style="fill:currentColor"/><rect x="5.41" y="28.38" width="105.06" height="3.63" style="fill:currentColor"/><path d="M10.18,4.9V17.67H6.06V4.9H.91V1.19H15.33V4.9Z" style="fill:currentColor"/><path d="M31.48,11.39H20.66v6.28H16.54V1.19h4.12V7.48H31.48V1.19H35.6V17.67H31.48Z" style="fill:currentColor"/><path d="M37.5,17.67V1.19H49.22V4.9h-7.6V7.68h6.16v3.5H41.62V14h7.6v3.7Z" style="fill:currentColor"/><path d="M60.28,7.13h-.61V17.67H55.55V1.19h4.82L70,11.49h.62V1.19h4.12V17.67H70.05Z" style="fill:currentColor"/><path d="M76.6,17.67V1.19H88.33V4.9H80.72V7.68h6.16v3.5H80.72V14h7.61v3.7Z" style="fill:currentColor"/><path d="M88.7,1.19h4.59l3.57,13.13h1l3.26-13.13h7.75l3.72,13.13h1l3.09-13.13h4.68l-4.55,16.48H109.4L105.61,4.55h-1.15L101,17.67H93.66Z" style="fill:currentColor"/><path d="M126,6.22c0-3.48,2.78-5.36,6.37-5.36A12.65,12.65,0,0,1,138,2.14l-.78,3.5a10.74,10.74,0,0,0-5-1.25c-1.28,0-2.14.49-2.14,1.36,0,2.67,8.45,1.17,8.45,6.71,0,2.95-2.11,5.54-6.49,5.54A13.73,13.73,0,0,1,126.34,17l.16-3.77a12.81,12.81,0,0,0,5.67,1.3c1.81,0,2.27-.64,2.27-1.4C134.44,10.61,126,12.05,126,6.22Z" style="fill:currentColor"/><path d="M152.2,17.45a11.27,11.27,0,0,1-4.29.55,8.46,8.46,0,0,1-8.59-8.59c0-4.67,3.61-8.53,9-8.53a13.21,13.21,0,0,1,4.18.48l-.39,3.75a10.45,10.45,0,0,0-3.66-.54c-3,0-4.85,1.79-4.85,4.84s2,4.82,4.95,4.82a9.34,9.34,0,0,0,3.69-.59Z" style="fill:currentColor"/><path d="M169,11.39H158.21v6.28h-4.12V1.19h4.12V7.48H169V1.19h4.12V17.67H169Z" style="fill:currentColor"/><path d="M184,.86c5.66,0,9.74,2.93,9.74,8.49,0,5.79-4.41,8.65-9.76,8.65s-9.81-2.9-9.81-8.63C174.16,4,178.18.86,184,.86Zm-.06,13.68c3.23,0,5.56-1.65,5.56-5.27,0-3.3-2.33-4.95-5.54-4.95s-5.55,1.61-5.55,5.07S180.73,14.54,183.93,14.54Z" style="fill:currentColor"/><path d="M204.28.86C210,.86,214,3.79,214,9.35c0,5.79-4.41,8.65-9.77,8.65s-9.8-2.9-9.8-8.63C194.46,4,198.47.86,204.28.86Zm-.06,13.68c3.24,0,5.56-1.65,5.56-5.27,0-3.3-2.32-4.95-5.54-4.95s-5.54,1.61-5.54,5.07S201,14.54,204.22,14.54Z" style="fill:currentColor"/><path d="M215.16,1.19h4.12V13.76H232v3.91H215.16Z" style="fill:currentColor"/><path d="M114,28.39H169.7c17.91,0,26.82,11.43,26.82,24.57,0,15.75-12.87,25.38-26.82,25.38H132v22H114Zm18,16.2V63h35.1c8.82,0,10.8-5,10.8-9.63,0-3.78-2-8.82-10.8-8.82Z" style="fill:currentColor"/><path d="M235.58,86.62H209.21l-5,13.77H185.09l28.89-72h18.54l27.09,72H240.08ZM214.43,72H230.9l-7.74-24Z" style="fill:currentColor"/><path d="M262.58,28.39h34.11c16.11,0,24.12,11.43,24.12,24.57,0,10.62-5.4,18.45-12.6,22.41l12.6,25H300.56l-10-22h-10v22h-18Zm18,16.2V63h11.7c7,0,9.9-5,9.9-9.63,0-3.78-2.88-8.82-9.9-8.82Z" style="fill:currentColor"/><path d="M325,50.35C325,35.14,337.1,27,352.76,27c9.09,0,19.08,2.34,24.75,5.58l-3.42,15.3c-6-3.6-15-5.49-22-5.49-5.58,0-9.36,2.16-9.36,5.94,0,11.7,36.9,5.13,36.9,29.34,0,12.87-9.18,24.2-28.35,24.2-8.19,0-17.46-1.07-24.93-4.58l.72-16.47a56.22,56.22,0,0,0,24.75,5.67c7.92,0,9.9-2.79,9.9-6.12C361.76,69.52,325,75.82,325,50.35Z" style="fill:currentColor"/><path d="M424,27c24.75,0,42.57,12.78,42.57,37.08,0,25.29-19.26,37.79-42.66,37.79-23.58,0-42.84-12.68-42.84-37.7C381.11,40.54,398.66,27,424,27Zm-.27,59.76c14.13,0,24.3-7.2,24.3-23,0-14.4-10.17-21.6-24.21-21.6s-24.21,7-24.21,22.14S409.82,86.71,423.77,86.71Z" style="fill:currentColor"/><path d="M493,49.9h-4.5v50.49h-18v-72h25.29l47.6,45.45h4.5V28.39h18v72H544.1Z" style="fill:currentColor"/><path d="M572.46,50.35c0-15.21,14.4-23.4,33.66-23.4,12.24,0,24.92,2.34,30.59,5.58l-3.42,15.3c-6-3.6-18.18-5.49-27.81-5.49-10.34,0-15.2,2.16-15.2,5.94,0,12.42,48.59,2.79,48.59,29.34,0,12.87-11,24.2-34.19,24.2-10.44,0-23.31-1.07-30.78-4.58l.72-16.47c7.47,3.6,18.36,5.67,30.6,5.67C617,86.44,621,83.65,621,80.32,621,68.71,572.46,78,572.46,50.35Z" style="fill:currentColor"/></svg>